<mxfile host="app.diagrams.net" agent="Mozilla/5.0 (Windows NT 10.0; Win64; x64) AppleWebKit/537.36 (KHTML, like Gecko) Chrome/134.0.0.0 Safari/537.36" version="26.1.1" pages="3">
  <diagram id="C5RBs43oDa-KdzZeNtuy" name="Class Diagram">
    <mxGraphModel dx="4576" dy="1412" grid="1" gridSize="10" guides="1" tooltips="1" connect="1" arrows="1" fold="1" page="1" pageScale="1" pageWidth="827" pageHeight="1169" math="0" shadow="0">
      <root>
        <mxCell id="WIyWlLk6GJQsqaUBKTNV-0" />
        <mxCell id="WIyWlLk6GJQsqaUBKTNV-1" parent="WIyWlLk6GJQsqaUBKTNV-0" />
        <mxCell id="zkfFHV4jXpPFQw0GAbJ--0" value="Task" style="swimlane;fontStyle=3;align=center;verticalAlign=top;childLayout=stackLayout;horizontal=1;startSize=26;horizontalStack=0;resizeParent=1;resizeLast=0;collapsible=1;marginBottom=0;rounded=0;shadow=0;strokeWidth=1;" parent="WIyWlLk6GJQsqaUBKTNV-1" vertex="1">
          <mxGeometry x="210" y="320" width="160" height="100" as="geometry">
            <mxRectangle x="230" y="140" width="160" height="26" as="alternateBounds" />
          </mxGeometry>
        </mxCell>
        <mxCell id="zkfFHV4jXpPFQw0GAbJ--1" value="- idTask: int" style="text;align=left;verticalAlign=top;spacingLeft=4;spacingRight=4;overflow=hidden;rotatable=0;points=[[0,0.5],[1,0.5]];portConstraint=eastwest;" parent="zkfFHV4jXpPFQw0GAbJ--0" vertex="1">
          <mxGeometry y="26" width="160" height="14" as="geometry" />
        </mxCell>
        <mxCell id="zkfFHV4jXpPFQw0GAbJ--2" value="- statusTask: String" style="text;align=left;verticalAlign=top;spacingLeft=4;spacingRight=4;overflow=hidden;rotatable=0;points=[[0,0.5],[1,0.5]];portConstraint=eastwest;rounded=0;shadow=0;html=0;" parent="zkfFHV4jXpPFQw0GAbJ--0" vertex="1">
          <mxGeometry y="40" width="160" height="20" as="geometry" />
        </mxCell>
        <mxCell id="zkfFHV4jXpPFQw0GAbJ--4" value="" style="line;html=1;strokeWidth=1;align=left;verticalAlign=middle;spacingTop=-1;spacingLeft=3;spacingRight=3;rotatable=0;labelPosition=right;points=[];portConstraint=eastwest;" parent="zkfFHV4jXpPFQw0GAbJ--0" vertex="1">
          <mxGeometry y="60" width="160" height="10" as="geometry" />
        </mxCell>
        <mxCell id="zkfFHV4jXpPFQw0GAbJ--5" value="+ estimateDuration(): int" style="text;align=left;verticalAlign=top;spacingLeft=4;spacingRight=4;overflow=hidden;rotatable=0;points=[[0,0.5],[1,0.5]];portConstraint=eastwest;" parent="zkfFHV4jXpPFQw0GAbJ--0" vertex="1">
          <mxGeometry y="70" width="160" height="20" as="geometry" />
        </mxCell>
        <mxCell id="zkfFHV4jXpPFQw0GAbJ--12" value="" style="endArrow=block;endSize=10;endFill=0;shadow=0;strokeWidth=1;rounded=0;curved=0;edgeStyle=elbowEdgeStyle;elbow=vertical;exitX=0.563;exitY=0;exitDx=0;exitDy=0;exitPerimeter=0;" parent="WIyWlLk6GJQsqaUBKTNV-1" source="I8PFlKCPLrSHZDO6yJQt-6" target="zkfFHV4jXpPFQw0GAbJ--0" edge="1">
          <mxGeometry width="160" relative="1" as="geometry">
            <mxPoint x="190" y="560" as="sourcePoint" />
            <mxPoint x="190" y="403" as="targetPoint" />
            <Array as="points">
              <mxPoint x="290" y="510" />
            </Array>
          </mxGeometry>
        </mxCell>
        <mxCell id="zkfFHV4jXpPFQw0GAbJ--16" value="" style="endArrow=block;endSize=10;endFill=0;shadow=0;strokeWidth=1;rounded=0;curved=0;edgeStyle=elbowEdgeStyle;elbow=vertical;exitX=0.5;exitY=0;exitDx=0;exitDy=0;" parent="WIyWlLk6GJQsqaUBKTNV-1" source="I8PFlKCPLrSHZDO6yJQt-1" target="zkfFHV4jXpPFQw0GAbJ--0" edge="1">
          <mxGeometry width="160" relative="1" as="geometry">
            <mxPoint x="400" y="560" as="sourcePoint" />
            <mxPoint x="300" y="471" as="targetPoint" />
            <Array as="points">
              <mxPoint x="290" y="510" />
            </Array>
          </mxGeometry>
        </mxCell>
        <mxCell id="zkfFHV4jXpPFQw0GAbJ--17" value="TaskManagement" style="swimlane;fontStyle=1;align=center;verticalAlign=top;childLayout=stackLayout;horizontal=1;startSize=26;horizontalStack=0;resizeParent=1;resizeLast=0;collapsible=1;marginBottom=0;rounded=0;shadow=0;strokeWidth=1;" parent="WIyWlLk6GJQsqaUBKTNV-1" vertex="1">
          <mxGeometry x="-250" y="320" width="380" height="270" as="geometry">
            <mxRectangle x="550" y="140" width="160" height="26" as="alternateBounds" />
          </mxGeometry>
        </mxCell>
        <mxCell id="zkfFHV4jXpPFQw0GAbJ--18" value="- map: Map&lt;Employee, List&lt;Task&gt;&gt;" style="text;align=left;verticalAlign=top;spacingLeft=4;spacingRight=4;overflow=hidden;rotatable=0;points=[[0,0.5],[1,0.5]];portConstraint=eastwest;" parent="zkfFHV4jXpPFQw0GAbJ--17" vertex="1">
          <mxGeometry y="26" width="380" height="26" as="geometry" />
        </mxCell>
        <mxCell id="zkfFHV4jXpPFQw0GAbJ--23" value="" style="line;html=1;strokeWidth=1;align=left;verticalAlign=middle;spacingTop=-1;spacingLeft=3;spacingRight=3;rotatable=0;labelPosition=right;points=[];portConstraint=eastwest;" parent="zkfFHV4jXpPFQw0GAbJ--17" vertex="1">
          <mxGeometry y="52" width="380" height="8" as="geometry" />
        </mxCell>
        <mxCell id="I8PFlKCPLrSHZDO6yJQt-14" value="+ addEmployee(employee: Employee): void" style="text;align=left;verticalAlign=top;spacingLeft=4;spacingRight=4;overflow=hidden;rotatable=0;points=[[0,0.5],[1,0.5]];portConstraint=eastwest;" parent="zkfFHV4jXpPFQw0GAbJ--17" vertex="1">
          <mxGeometry y="60" width="380" height="20" as="geometry" />
        </mxCell>
        <mxCell id="I8PFlKCPLrSHZDO6yJQt-15" value="+ findEmployee(idEmployee: int): Employee" style="text;align=left;verticalAlign=top;spacingLeft=4;spacingRight=4;overflow=hidden;rotatable=0;points=[[0,0.5],[1,0.5]];portConstraint=eastwest;" parent="zkfFHV4jXpPFQw0GAbJ--17" vertex="1">
          <mxGeometry y="80" width="380" height="20" as="geometry" />
        </mxCell>
        <mxCell id="I8PFlKCPLrSHZDO6yJQt-16" value="+ assignTaskToEmployee(idEmployee: int, task: Task): void" style="text;align=left;verticalAlign=top;spacingLeft=4;spacingRight=4;overflow=hidden;rotatable=0;points=[[0,0.5],[1,0.5]];portConstraint=eastwest;" parent="zkfFHV4jXpPFQw0GAbJ--17" vertex="1">
          <mxGeometry y="100" width="380" height="20" as="geometry" />
        </mxCell>
        <mxCell id="I8PFlKCPLrSHZDO6yJQt-17" value="+ calculateEmployeeWorkDuration(idEmployee: int): int" style="text;align=left;verticalAlign=top;spacingLeft=4;spacingRight=4;overflow=hidden;rotatable=0;points=[[0,0.5],[1,0.5]];portConstraint=eastwest;" parent="zkfFHV4jXpPFQw0GAbJ--17" vertex="1">
          <mxGeometry y="120" width="380" height="20" as="geometry" />
        </mxCell>
        <mxCell id="I8PFlKCPLrSHZDO6yJQt-19" value="+ modifyTaskStatus(idEmployee: int, task: Task): void" style="text;align=left;verticalAlign=top;spacingLeft=4;spacingRight=4;overflow=hidden;rotatable=0;points=[[0,0.5],[1,0.5]];portConstraint=eastwest;" parent="zkfFHV4jXpPFQw0GAbJ--17" vertex="1">
          <mxGeometry y="140" width="380" height="20" as="geometry" />
        </mxCell>
        <mxCell id="I8PFlKCPLrSHZDO6yJQt-20" value="+ deleteEmployee(employee: Employee): void" style="text;align=left;verticalAlign=top;spacingLeft=4;spacingRight=4;overflow=hidden;rotatable=0;points=[[0,0.5],[1,0.5]];portConstraint=eastwest;" parent="zkfFHV4jXpPFQw0GAbJ--17" vertex="1">
          <mxGeometry y="160" width="380" height="20" as="geometry" />
        </mxCell>
        <mxCell id="I8PFlKCPLrSHZDO6yJQt-50" value="+ calculateTaskDuration(task: Task): int " style="text;align=left;verticalAlign=top;spacingLeft=4;spacingRight=4;overflow=hidden;rotatable=0;points=[[0,0.5],[1,0.5]];portConstraint=eastwest;" parent="zkfFHV4jXpPFQw0GAbJ--17" vertex="1">
          <mxGeometry y="180" width="380" height="20" as="geometry" />
        </mxCell>
        <mxCell id="6RNQ9JOmNGrseL3mevXN-9" value="+ calculateTaskDurationRecursively(task: Task): int " style="text;align=left;verticalAlign=top;spacingLeft=4;spacingRight=4;overflow=hidden;rotatable=0;points=[[0,0.5],[1,0.5]];portConstraint=eastwest;" parent="zkfFHV4jXpPFQw0GAbJ--17" vertex="1">
          <mxGeometry y="200" width="380" height="20" as="geometry" />
        </mxCell>
        <mxCell id="6RNQ9JOmNGrseL3mevXN-11" value="+ findAndModifyTaskDuration(task: Task, idTask: int): boolean" style="text;align=left;verticalAlign=top;spacingLeft=4;spacingRight=4;overflow=hidden;rotatable=0;points=[[0,0.5],[1,0.5]];portConstraint=eastwest;" parent="zkfFHV4jXpPFQw0GAbJ--17" vertex="1">
          <mxGeometry y="220" width="380" height="20" as="geometry" />
        </mxCell>
        <mxCell id="6RNQ9JOmNGrseL3mevXN-12" value="+ areAllSubtasksCompleted(complexTask: ComplexTask): boolean" style="text;align=left;verticalAlign=top;spacingLeft=4;spacingRight=4;overflow=hidden;rotatable=0;points=[[0,0.5],[1,0.5]];portConstraint=eastwest;" parent="zkfFHV4jXpPFQw0GAbJ--17" vertex="1">
          <mxGeometry y="240" width="380" height="20" as="geometry" />
        </mxCell>
        <mxCell id="I8PFlKCPLrSHZDO6yJQt-1" value="ComplexTask" style="swimlane;fontStyle=3;align=center;verticalAlign=top;childLayout=stackLayout;horizontal=1;startSize=26;horizontalStack=0;resizeParent=1;resizeLast=0;collapsible=1;marginBottom=0;rounded=0;shadow=0;strokeWidth=1;" parent="WIyWlLk6GJQsqaUBKTNV-1" vertex="1">
          <mxGeometry x="310" y="620" width="176" height="160" as="geometry">
            <mxRectangle x="230" y="140" width="160" height="26" as="alternateBounds" />
          </mxGeometry>
        </mxCell>
        <mxCell id="I8PFlKCPLrSHZDO6yJQt-2" value="- subTasks: List&lt;Task&gt;" style="text;align=left;verticalAlign=top;spacingLeft=4;spacingRight=4;overflow=hidden;rotatable=0;points=[[0,0.5],[1,0.5]];portConstraint=eastwest;" parent="I8PFlKCPLrSHZDO6yJQt-1" vertex="1">
          <mxGeometry y="26" width="176" height="14" as="geometry" />
        </mxCell>
        <mxCell id="I8PFlKCPLrSHZDO6yJQt-4" value="" style="line;html=1;strokeWidth=1;align=left;verticalAlign=middle;spacingTop=-1;spacingLeft=3;spacingRight=3;rotatable=0;labelPosition=right;points=[];portConstraint=eastwest;" parent="I8PFlKCPLrSHZDO6yJQt-1" vertex="1">
          <mxGeometry y="40" width="176" height="20" as="geometry" />
        </mxCell>
        <mxCell id="I8PFlKCPLrSHZDO6yJQt-11" value="+ addTask(task: Task): void" style="text;align=left;verticalAlign=top;spacingLeft=4;spacingRight=4;overflow=hidden;rotatable=0;points=[[0,0.5],[1,0.5]];portConstraint=eastwest;" parent="I8PFlKCPLrSHZDO6yJQt-1" vertex="1">
          <mxGeometry y="60" width="176" height="20" as="geometry" />
        </mxCell>
        <mxCell id="I8PFlKCPLrSHZDO6yJQt-12" value="+ deleteTask(task: Task): void" style="text;align=left;verticalAlign=top;spacingLeft=4;spacingRight=4;overflow=hidden;rotatable=0;points=[[0,0.5],[1,0.5]];portConstraint=eastwest;" parent="I8PFlKCPLrSHZDO6yJQt-1" vertex="1">
          <mxGeometry y="80" width="176" height="20" as="geometry" />
        </mxCell>
        <mxCell id="I8PFlKCPLrSHZDO6yJQt-5" value="+ estimateDuration(): int" style="text;align=left;verticalAlign=top;spacingLeft=4;spacingRight=4;overflow=hidden;rotatable=0;points=[[0,0.5],[1,0.5]];portConstraint=eastwest;" parent="I8PFlKCPLrSHZDO6yJQt-1" vertex="1">
          <mxGeometry y="100" width="176" height="30" as="geometry" />
        </mxCell>
        <mxCell id="6RNQ9JOmNGrseL3mevXN-8" value="+ getSubTasks(): List&lt;Task&gt;" style="text;align=left;verticalAlign=top;spacingLeft=4;spacingRight=4;overflow=hidden;rotatable=0;points=[[0,0.5],[1,0.5]];portConstraint=eastwest;" parent="I8PFlKCPLrSHZDO6yJQt-1" vertex="1">
          <mxGeometry y="130" width="176" height="30" as="geometry" />
        </mxCell>
        <mxCell id="I8PFlKCPLrSHZDO6yJQt-6" value="SimpleTask" style="swimlane;fontStyle=3;align=center;verticalAlign=top;childLayout=stackLayout;horizontal=1;startSize=26;horizontalStack=0;resizeParent=1;resizeLast=0;collapsible=1;marginBottom=0;rounded=0;shadow=0;strokeWidth=1;" parent="WIyWlLk6GJQsqaUBKTNV-1" vertex="1">
          <mxGeometry x="70" y="620" width="160" height="100" as="geometry">
            <mxRectangle x="120" y="350" width="160" height="26" as="alternateBounds" />
          </mxGeometry>
        </mxCell>
        <mxCell id="I8PFlKCPLrSHZDO6yJQt-7" value="- startHour: int" style="text;align=left;verticalAlign=top;spacingLeft=4;spacingRight=4;overflow=hidden;rotatable=0;points=[[0,0.5],[1,0.5]];portConstraint=eastwest;" parent="I8PFlKCPLrSHZDO6yJQt-6" vertex="1">
          <mxGeometry y="26" width="160" height="14" as="geometry" />
        </mxCell>
        <mxCell id="I8PFlKCPLrSHZDO6yJQt-8" value="- endHour: int" style="text;align=left;verticalAlign=top;spacingLeft=4;spacingRight=4;overflow=hidden;rotatable=0;points=[[0,0.5],[1,0.5]];portConstraint=eastwest;rounded=0;shadow=0;html=0;" parent="I8PFlKCPLrSHZDO6yJQt-6" vertex="1">
          <mxGeometry y="40" width="160" height="20" as="geometry" />
        </mxCell>
        <mxCell id="I8PFlKCPLrSHZDO6yJQt-9" value="" style="line;html=1;strokeWidth=1;align=left;verticalAlign=middle;spacingTop=-1;spacingLeft=3;spacingRight=3;rotatable=0;labelPosition=right;points=[];portConstraint=eastwest;" parent="I8PFlKCPLrSHZDO6yJQt-6" vertex="1">
          <mxGeometry y="60" width="160" height="10" as="geometry" />
        </mxCell>
        <mxCell id="I8PFlKCPLrSHZDO6yJQt-10" value="+ estimateDuration(): int" style="text;align=left;verticalAlign=top;spacingLeft=4;spacingRight=4;overflow=hidden;rotatable=0;points=[[0,0.5],[1,0.5]];portConstraint=eastwest;" parent="I8PFlKCPLrSHZDO6yJQt-6" vertex="1">
          <mxGeometry y="70" width="160" height="20" as="geometry" />
        </mxCell>
        <mxCell id="I8PFlKCPLrSHZDO6yJQt-13" value="&lt;b&gt;&amp;lt;&amp;lt;abstract&amp;gt;&amp;gt;&lt;/b&gt;" style="text;html=1;align=center;verticalAlign=middle;whiteSpace=wrap;rounded=0;" parent="WIyWlLk6GJQsqaUBKTNV-1" vertex="1">
          <mxGeometry x="247" y="280" width="86" height="30" as="geometry" />
        </mxCell>
        <mxCell id="6RNQ9JOmNGrseL3mevXN-87" style="edgeStyle=orthogonalEdgeStyle;rounded=0;orthogonalLoop=1;jettySize=auto;html=1;exitX=1;exitY=0.25;exitDx=0;exitDy=0;" parent="WIyWlLk6GJQsqaUBKTNV-1" source="I8PFlKCPLrSHZDO6yJQt-23" target="6RNQ9JOmNGrseL3mevXN-8" edge="1">
          <mxGeometry relative="1" as="geometry">
            <mxPoint x="420" y="890" as="targetPoint" />
            <Array as="points">
              <mxPoint x="800" y="120" />
              <mxPoint x="800" y="890" />
              <mxPoint x="398" y="890" />
            </Array>
          </mxGeometry>
        </mxCell>
        <mxCell id="I8PFlKCPLrSHZDO6yJQt-23" value="Employee" style="swimlane;fontStyle=3;align=center;verticalAlign=top;childLayout=stackLayout;horizontal=1;startSize=26;horizontalStack=0;resizeParent=1;resizeLast=0;collapsible=1;marginBottom=0;rounded=0;shadow=0;strokeWidth=1;" parent="WIyWlLk6GJQsqaUBKTNV-1" vertex="1">
          <mxGeometry x="-140" y="100" width="160" height="80" as="geometry">
            <mxRectangle x="230" y="140" width="160" height="26" as="alternateBounds" />
          </mxGeometry>
        </mxCell>
        <mxCell id="I8PFlKCPLrSHZDO6yJQt-24" value="- idEmployee: int" style="text;align=left;verticalAlign=top;spacingLeft=4;spacingRight=4;overflow=hidden;rotatable=0;points=[[0,0.5],[1,0.5]];portConstraint=eastwest;" parent="I8PFlKCPLrSHZDO6yJQt-23" vertex="1">
          <mxGeometry y="26" width="160" height="14" as="geometry" />
        </mxCell>
        <mxCell id="I8PFlKCPLrSHZDO6yJQt-25" value="-name: String" style="text;align=left;verticalAlign=top;spacingLeft=4;spacingRight=4;overflow=hidden;rotatable=0;points=[[0,0.5],[1,0.5]];portConstraint=eastwest;rounded=0;shadow=0;html=0;" parent="I8PFlKCPLrSHZDO6yJQt-23" vertex="1">
          <mxGeometry y="40" width="160" height="20" as="geometry" />
        </mxCell>
        <mxCell id="I8PFlKCPLrSHZDO6yJQt-26" value="" style="line;html=1;strokeWidth=1;align=left;verticalAlign=middle;spacingTop=-1;spacingLeft=3;spacingRight=3;rotatable=0;labelPosition=right;points=[];portConstraint=eastwest;" parent="I8PFlKCPLrSHZDO6yJQt-23" vertex="1">
          <mxGeometry y="60" width="160" height="10" as="geometry" />
        </mxCell>
        <mxCell id="I8PFlKCPLrSHZDO6yJQt-36" value="Utility" style="swimlane;fontStyle=3;align=center;verticalAlign=top;childLayout=stackLayout;horizontal=1;startSize=26;horizontalStack=0;resizeParent=1;resizeLast=0;collapsible=1;marginBottom=0;rounded=0;shadow=0;strokeWidth=1;" parent="WIyWlLk6GJQsqaUBKTNV-1" vertex="1">
          <mxGeometry x="-1220" y="360" width="626" height="120" as="geometry">
            <mxRectangle x="230" y="140" width="160" height="26" as="alternateBounds" />
          </mxGeometry>
        </mxCell>
        <mxCell id="I8PFlKCPLrSHZDO6yJQt-38" value="" style="line;html=1;strokeWidth=1;align=left;verticalAlign=middle;spacingTop=-1;spacingLeft=3;spacingRight=3;rotatable=0;labelPosition=right;points=[];portConstraint=eastwest;" parent="I8PFlKCPLrSHZDO6yJQt-36" vertex="1">
          <mxGeometry y="26" width="626" height="24" as="geometry" />
        </mxCell>
        <mxCell id="I8PFlKCPLrSHZDO6yJQt-39" value="+ displayEmployeesWithMoreThan40Hours(taskManagement: TaskManagement): void" style="text;align=left;verticalAlign=top;spacingLeft=4;spacingRight=4;overflow=hidden;rotatable=0;points=[[0,0.5],[1,0.5]];portConstraint=eastwest;" parent="I8PFlKCPLrSHZDO6yJQt-36" vertex="1">
          <mxGeometry y="50" width="626" height="20" as="geometry" />
        </mxCell>
        <mxCell id="I8PFlKCPLrSHZDO6yJQt-40" value="+ getTaskStatusCountForEmployees(taskManagement: TaskManagement): Map&lt;String, Map&lt;String, Integer&gt;&gt;" style="text;align=left;verticalAlign=top;spacingLeft=4;spacingRight=4;overflow=hidden;rotatable=0;points=[[0,0.5],[1,0.5]];portConstraint=eastwest;" parent="I8PFlKCPLrSHZDO6yJQt-36" vertex="1">
          <mxGeometry y="70" width="626" height="20" as="geometry" />
        </mxCell>
        <mxCell id="6RNQ9JOmNGrseL3mevXN-14" value="+ getTaskStatusCountForEmployees(task: Task, taskStatusCount: Map&lt;String, Integer&gt;): void" style="text;align=left;verticalAlign=top;spacingLeft=4;spacingRight=4;overflow=hidden;rotatable=0;points=[[0,0.5],[1,0.5]];portConstraint=eastwest;" parent="I8PFlKCPLrSHZDO6yJQt-36" vertex="1">
          <mxGeometry y="90" width="626" height="20" as="geometry" />
        </mxCell>
        <mxCell id="I8PFlKCPLrSHZDO6yJQt-44" value="SerializationOperations" style="swimlane;fontStyle=3;align=center;verticalAlign=top;childLayout=stackLayout;horizontal=1;startSize=26;horizontalStack=0;resizeParent=1;resizeLast=0;collapsible=1;marginBottom=0;rounded=0;shadow=0;strokeWidth=1;" parent="WIyWlLk6GJQsqaUBKTNV-1" vertex="1">
          <mxGeometry x="-230" y="830" width="293" height="110" as="geometry">
            <mxRectangle x="230" y="140" width="160" height="26" as="alternateBounds" />
          </mxGeometry>
        </mxCell>
        <mxCell id="I8PFlKCPLrSHZDO6yJQt-46" value="" style="line;html=1;strokeWidth=1;align=left;verticalAlign=middle;spacingTop=-1;spacingLeft=3;spacingRight=3;rotatable=0;labelPosition=right;points=[];portConstraint=eastwest;" parent="I8PFlKCPLrSHZDO6yJQt-44" vertex="1">
          <mxGeometry y="26" width="293" height="20" as="geometry" />
        </mxCell>
        <mxCell id="I8PFlKCPLrSHZDO6yJQt-47" value="- saveData(data: Map&lt;Employee, List&lt;Task&gt;&gt;): void " style="text;align=left;verticalAlign=top;spacingLeft=4;spacingRight=4;overflow=hidden;rotatable=0;points=[[0,0.5],[1,0.5]];portConstraint=eastwest;" parent="I8PFlKCPLrSHZDO6yJQt-44" vertex="1">
          <mxGeometry y="46" width="293" height="20" as="geometry" />
        </mxCell>
        <mxCell id="I8PFlKCPLrSHZDO6yJQt-48" value="- loadData(): Map&lt;Employee, List&lt;Task&gt;&gt;" style="text;align=left;verticalAlign=top;spacingLeft=4;spacingRight=4;overflow=hidden;rotatable=0;points=[[0,0.5],[1,0.5]];portConstraint=eastwest;" parent="I8PFlKCPLrSHZDO6yJQt-44" vertex="1">
          <mxGeometry y="66" width="293" height="20" as="geometry" />
        </mxCell>
        <mxCell id="6RNQ9JOmNGrseL3mevXN-20" value="" style="endArrow=diamondThin;endFill=0;endSize=24;html=1;rounded=0;entryX=1.009;entryY=-0.053;entryDx=0;entryDy=0;entryPerimeter=0;" parent="WIyWlLk6GJQsqaUBKTNV-1" edge="1">
          <mxGeometry width="160" relative="1" as="geometry">
            <mxPoint x="370" y="368.47" as="sourcePoint" />
            <mxPoint x="487.58399999999983" y="717.4099999999999" as="targetPoint" />
            <Array as="points">
              <mxPoint x="640" y="368" />
              <mxPoint x="640" y="717" />
            </Array>
          </mxGeometry>
        </mxCell>
        <mxCell id="6RNQ9JOmNGrseL3mevXN-22" value="" style="endArrow=diamondThin;endFill=0;endSize=24;html=1;rounded=0;entryX=-0.004;entryY=0.949;entryDx=0;entryDy=0;entryPerimeter=0;exitX=1;exitY=0.5;exitDx=0;exitDy=0;" parent="WIyWlLk6GJQsqaUBKTNV-1" source="I8PFlKCPLrSHZDO6yJQt-39" target="I8PFlKCPLrSHZDO6yJQt-15" edge="1">
          <mxGeometry width="160" relative="1" as="geometry">
            <mxPoint x="-420" y="420" as="sourcePoint" />
            <mxPoint x="-260" y="420" as="targetPoint" />
          </mxGeometry>
        </mxCell>
        <mxCell id="6RNQ9JOmNGrseL3mevXN-27" value="" style="endArrow=diamondThin;endFill=0;endSize=24;html=1;rounded=0;entryX=0.5;entryY=0;entryDx=0;entryDy=0;exitX=0.5;exitY=1;exitDx=0;exitDy=0;" parent="WIyWlLk6GJQsqaUBKTNV-1" source="I8PFlKCPLrSHZDO6yJQt-23" target="zkfFHV4jXpPFQw0GAbJ--17" edge="1">
          <mxGeometry width="160" relative="1" as="geometry">
            <mxPoint x="-140" y="240" as="sourcePoint" />
            <mxPoint x="20" y="240" as="targetPoint" />
          </mxGeometry>
        </mxCell>
        <mxCell id="6RNQ9JOmNGrseL3mevXN-28" value="" style="endArrow=diamondThin;endFill=0;endSize=24;html=1;rounded=0;entryX=1;entryY=0.5;entryDx=0;entryDy=0;exitX=0.004;exitY=-0.001;exitDx=0;exitDy=0;exitPerimeter=0;" parent="WIyWlLk6GJQsqaUBKTNV-1" source="zkfFHV4jXpPFQw0GAbJ--5" target="I8PFlKCPLrSHZDO6yJQt-14" edge="1">
          <mxGeometry width="160" relative="1" as="geometry">
            <mxPoint x="80" y="240" as="sourcePoint" />
            <mxPoint x="240" y="240" as="targetPoint" />
          </mxGeometry>
        </mxCell>
        <mxCell id="6RNQ9JOmNGrseL3mevXN-29" value="Controller" style="swimlane;fontStyle=1;align=center;verticalAlign=top;childLayout=stackLayout;horizontal=1;startSize=26;horizontalStack=0;resizeParent=1;resizeLast=0;collapsible=1;marginBottom=0;rounded=0;shadow=0;strokeWidth=1;" parent="WIyWlLk6GJQsqaUBKTNV-1" vertex="1">
          <mxGeometry x="-820" y="650" width="513" height="450" as="geometry">
            <mxRectangle x="550" y="140" width="160" height="26" as="alternateBounds" />
          </mxGeometry>
        </mxCell>
        <mxCell id="6RNQ9JOmNGrseL3mevXN-30" value="- taskManagement: TaskManagement" style="text;align=left;verticalAlign=top;spacingLeft=4;spacingRight=4;overflow=hidden;rotatable=0;points=[[0,0.5],[1,0.5]];portConstraint=eastwest;" parent="6RNQ9JOmNGrseL3mevXN-29" vertex="1">
          <mxGeometry y="26" width="513" height="26" as="geometry" />
        </mxCell>
        <mxCell id="6RNQ9JOmNGrseL3mevXN-31" value="" style="line;html=1;strokeWidth=1;align=left;verticalAlign=middle;spacingTop=-1;spacingLeft=3;spacingRight=3;rotatable=0;labelPosition=right;points=[];portConstraint=eastwest;" parent="6RNQ9JOmNGrseL3mevXN-29" vertex="1">
          <mxGeometry y="52" width="513" height="8" as="geometry" />
        </mxCell>
        <mxCell id="6RNQ9JOmNGrseL3mevXN-32" value="+ addEmployee(id: int, name String): void" style="text;align=left;verticalAlign=top;spacingLeft=4;spacingRight=4;overflow=hidden;rotatable=0;points=[[0,0.5],[1,0.5]];portConstraint=eastwest;" parent="6RNQ9JOmNGrseL3mevXN-29" vertex="1">
          <mxGeometry y="60" width="513" height="20" as="geometry" />
        </mxCell>
        <mxCell id="6RNQ9JOmNGrseL3mevXN-33" value="- findEmployeeById(idEmployee: int): Employee" style="text;align=left;verticalAlign=top;spacingLeft=4;spacingRight=4;overflow=hidden;rotatable=0;points=[[0,0.5],[1,0.5]];portConstraint=eastwest;" parent="6RNQ9JOmNGrseL3mevXN-29" vertex="1">
          <mxGeometry y="80" width="513" height="20" as="geometry" />
        </mxCell>
        <mxCell id="6RNQ9JOmNGrseL3mevXN-34" value="+ assignTaskToEmployee(idEmployee: int, task: Task): void" style="text;align=left;verticalAlign=top;spacingLeft=4;spacingRight=4;overflow=hidden;rotatable=0;points=[[0,0.5],[1,0.5]];portConstraint=eastwest;" parent="6RNQ9JOmNGrseL3mevXN-29" vertex="1">
          <mxGeometry y="100" width="513" height="20" as="geometry" />
        </mxCell>
        <mxCell id="6RNQ9JOmNGrseL3mevXN-37" value="+ deleteEmployee(employee: Employee): void" style="text;align=left;verticalAlign=top;spacingLeft=4;spacingRight=4;overflow=hidden;rotatable=0;points=[[0,0.5],[1,0.5]];portConstraint=eastwest;" parent="6RNQ9JOmNGrseL3mevXN-29" vertex="1">
          <mxGeometry y="120" width="513" height="20" as="geometry" />
        </mxCell>
        <mxCell id="6RNQ9JOmNGrseL3mevXN-42" value="+ toggleTaskStatus(employeeId: int, taskId: int): void" style="text;align=left;verticalAlign=top;spacingLeft=4;spacingRight=4;overflow=hidden;rotatable=0;points=[[0,0.5],[1,0.5]];portConstraint=eastwest;" parent="6RNQ9JOmNGrseL3mevXN-29" vertex="1">
          <mxGeometry y="140" width="513" height="20" as="geometry" />
        </mxCell>
        <mxCell id="6RNQ9JOmNGrseL3mevXN-36" value="- saveChanges(): void" style="text;align=left;verticalAlign=top;spacingLeft=4;spacingRight=4;overflow=hidden;rotatable=0;points=[[0,0.5],[1,0.5]];portConstraint=eastwest;" parent="6RNQ9JOmNGrseL3mevXN-29" vertex="1">
          <mxGeometry y="160" width="513" height="20" as="geometry" />
        </mxCell>
        <mxCell id="6RNQ9JOmNGrseL3mevXN-38" value="+ getTasksForEmployee(employeeId: int): List&lt;Task&gt;" style="text;align=left;verticalAlign=top;spacingLeft=4;spacingRight=4;overflow=hidden;rotatable=0;points=[[0,0.5],[1,0.5]];portConstraint=eastwest;" parent="6RNQ9JOmNGrseL3mevXN-29" vertex="1">
          <mxGeometry y="180" width="513" height="20" as="geometry" />
        </mxCell>
        <mxCell id="6RNQ9JOmNGrseL3mevXN-39" value="+ getAllEmployees(): List&lt;Employee&gt;" style="text;align=left;verticalAlign=top;spacingLeft=4;spacingRight=4;overflow=hidden;rotatable=0;points=[[0,0.5],[1,0.5]];portConstraint=eastwest;" parent="6RNQ9JOmNGrseL3mevXN-29" vertex="1">
          <mxGeometry y="200" width="513" height="20" as="geometry" />
        </mxCell>
        <mxCell id="6RNQ9JOmNGrseL3mevXN-40" value="+ getTasksData(): Map&lt;Employee, List&lt;Task&gt;&gt;" style="text;align=left;verticalAlign=top;spacingLeft=4;spacingRight=4;overflow=hidden;rotatable=0;points=[[0,0.5],[1,0.5]];portConstraint=eastwest;" parent="6RNQ9JOmNGrseL3mevXN-29" vertex="1">
          <mxGeometry y="220" width="513" height="20" as="geometry" />
        </mxCell>
        <mxCell id="6RNQ9JOmNGrseL3mevXN-41" value="+ getComplexTaskById(taskId: int): ComplexTask" style="text;align=left;verticalAlign=top;spacingLeft=4;spacingRight=4;overflow=hidden;rotatable=0;points=[[0,0.5],[1,0.5]];portConstraint=eastwest;" parent="6RNQ9JOmNGrseL3mevXN-29" vertex="1">
          <mxGeometry y="240" width="513" height="20" as="geometry" />
        </mxCell>
        <mxCell id="6RNQ9JOmNGrseL3mevXN-35" value="- findComplexTaskInSubTasks(parentTask: ComplexTask, taskId: int): ComplexTask" style="text;align=left;verticalAlign=top;spacingLeft=4;spacingRight=4;overflow=hidden;rotatable=0;points=[[0,0.5],[1,0.5]];portConstraint=eastwest;" parent="6RNQ9JOmNGrseL3mevXN-29" vertex="1">
          <mxGeometry y="260" width="513" height="20" as="geometry" />
        </mxCell>
        <mxCell id="6RNQ9JOmNGrseL3mevXN-43" value="- deleteSubTask(employeeId: int, complexTaskId: int, subTaskId: int): boolean" style="text;align=left;verticalAlign=top;spacingLeft=4;spacingRight=4;overflow=hidden;rotatable=0;points=[[0,0.5],[1,0.5]];portConstraint=eastwest;" parent="6RNQ9JOmNGrseL3mevXN-29" vertex="1">
          <mxGeometry y="280" width="513" height="20" as="geometry" />
        </mxCell>
        <mxCell id="6RNQ9JOmNGrseL3mevXN-44" value="- deleteSubTaskRecursively(complexTask: ComplexTask, subTaskId: int): boolean" style="text;align=left;verticalAlign=top;spacingLeft=4;spacingRight=4;overflow=hidden;rotatable=0;points=[[0,0.5],[1,0.5]];portConstraint=eastwest;" parent="6RNQ9JOmNGrseL3mevXN-29" vertex="1">
          <mxGeometry y="300" width="513" height="20" as="geometry" />
        </mxCell>
        <mxCell id="6RNQ9JOmNGrseL3mevXN-45" value="- generateUniqueIdForSimpleTask(): int" style="text;align=left;verticalAlign=top;spacingLeft=4;spacingRight=4;overflow=hidden;rotatable=0;points=[[0,0.5],[1,0.5]];portConstraint=eastwest;" parent="6RNQ9JOmNGrseL3mevXN-29" vertex="1">
          <mxGeometry y="320" width="513" height="20" as="geometry" />
        </mxCell>
        <mxCell id="6RNQ9JOmNGrseL3mevXN-47" value="- generateUniqueIdForComplexTask(): int" style="text;align=left;verticalAlign=top;spacingLeft=4;spacingRight=4;overflow=hidden;rotatable=0;points=[[0,0.5],[1,0.5]];portConstraint=eastwest;" parent="6RNQ9JOmNGrseL3mevXN-29" vertex="1">
          <mxGeometry y="340" width="513" height="20" as="geometry" />
        </mxCell>
        <mxCell id="6RNQ9JOmNGrseL3mevXN-48" value="+ deleteTask(employeeId: int, complexTaskId: int): void" style="text;align=left;verticalAlign=top;spacingLeft=4;spacingRight=4;overflow=hidden;rotatable=0;points=[[0,0.5],[1,0.5]];portConstraint=eastwest;" parent="6RNQ9JOmNGrseL3mevXN-29" vertex="1">
          <mxGeometry y="360" width="513" height="20" as="geometry" />
        </mxCell>
        <mxCell id="6RNQ9JOmNGrseL3mevXN-49" value="+ addSubTaskToComplexTask(employeeId: int, complexTaskId: int, subtTask: Task: boolean" style="text;align=left;verticalAlign=top;spacingLeft=4;spacingRight=4;overflow=hidden;rotatable=0;points=[[0,0.5],[1,0.5]];portConstraint=eastwest;" parent="6RNQ9JOmNGrseL3mevXN-29" vertex="1">
          <mxGeometry y="380" width="513" height="20" as="geometry" />
        </mxCell>
        <mxCell id="6RNQ9JOmNGrseL3mevXN-50" value="- addSubTasksRecursively(complexTask: ComplexTask): void" style="text;align=left;verticalAlign=top;spacingLeft=4;spacingRight=4;overflow=hidden;rotatable=0;points=[[0,0.5],[1,0.5]];portConstraint=eastwest;" parent="6RNQ9JOmNGrseL3mevXN-29" vertex="1">
          <mxGeometry y="400" width="513" height="20" as="geometry" />
        </mxCell>
        <mxCell id="6RNQ9JOmNGrseL3mevXN-51" value="+ calculateTotalWorkingHours(employeeId: int): int" style="text;align=left;verticalAlign=top;spacingLeft=4;spacingRight=4;overflow=hidden;rotatable=0;points=[[0,0.5],[1,0.5]];portConstraint=eastwest;" parent="6RNQ9JOmNGrseL3mevXN-29" vertex="1">
          <mxGeometry y="420" width="513" height="20" as="geometry" />
        </mxCell>
        <mxCell id="6RNQ9JOmNGrseL3mevXN-52" value="View" style="swimlane;fontStyle=1;align=center;verticalAlign=top;childLayout=stackLayout;horizontal=1;startSize=26;horizontalStack=0;resizeParent=1;resizeLast=0;collapsible=1;marginBottom=0;rounded=0;shadow=0;strokeWidth=1;" parent="WIyWlLk6GJQsqaUBKTNV-1" vertex="1">
          <mxGeometry x="-1450" y="650" width="513" height="660" as="geometry">
            <mxRectangle x="550" y="140" width="160" height="26" as="alternateBounds" />
          </mxGeometry>
        </mxCell>
        <mxCell id="6RNQ9JOmNGrseL3mevXN-53" value="- controller: Controller&#xa;- utility: Utility&#xa;- private empIdField: JTextField&#xa;- private empNameField: JTextField&#xa;- taskIdField: JTextField&#xa;- taskIdField: JTextField&#xa;- taskStatusField: JTextField&#xa;- startHourField: JTextField&#xa;- endHourField: JTextField&#xa;- employeeDropdown: JComboBox&lt;Employe&gt;&#xa;- taskTypeDropdown: JComboBox&lt;String&gt;&#xa;- private subTaskIdField: JTextField&#xa;- taskTable: JTable&#xa;- tableModel: DefaultTableModel&#xa;- tableScrollPane: JScorllPane" style="text;align=left;verticalAlign=top;spacingLeft=4;spacingRight=4;overflow=hidden;rotatable=0;points=[[0,0.5],[1,0.5]];portConstraint=eastwest;" parent="6RNQ9JOmNGrseL3mevXN-52" vertex="1">
          <mxGeometry y="26" width="513" height="224" as="geometry" />
        </mxCell>
        <mxCell id="6RNQ9JOmNGrseL3mevXN-54" value="" style="line;html=1;strokeWidth=1;align=left;verticalAlign=middle;spacingTop=-1;spacingLeft=3;spacingRight=3;rotatable=0;labelPosition=right;points=[];portConstraint=eastwest;" parent="6RNQ9JOmNGrseL3mevXN-52" vertex="1">
          <mxGeometry y="250" width="513" height="8" as="geometry" />
        </mxCell>
        <mxCell id="6RNQ9JOmNGrseL3mevXN-55" value="- createEmployeePanel(): JPanel" style="text;align=left;verticalAlign=top;spacingLeft=4;spacingRight=4;overflow=hidden;rotatable=0;points=[[0,0.5],[1,0.5]];portConstraint=eastwest;" parent="6RNQ9JOmNGrseL3mevXN-52" vertex="1">
          <mxGeometry y="258" width="513" height="20" as="geometry" />
        </mxCell>
        <mxCell id="6RNQ9JOmNGrseL3mevXN-56" value="- createTaskPanel(): JPanel" style="text;align=left;verticalAlign=top;spacingLeft=4;spacingRight=4;overflow=hidden;rotatable=0;points=[[0,0.5],[1,0.5]];portConstraint=eastwest;" parent="6RNQ9JOmNGrseL3mevXN-52" vertex="1">
          <mxGeometry y="278" width="513" height="20" as="geometry" />
        </mxCell>
        <mxCell id="6RNQ9JOmNGrseL3mevXN-57" value="- createViewPanel(): JPanel" style="text;align=left;verticalAlign=top;spacingLeft=4;spacingRight=4;overflow=hidden;rotatable=0;points=[[0,0.5],[1,0.5]];portConstraint=eastwest;" parent="6RNQ9JOmNGrseL3mevXN-52" vertex="1">
          <mxGeometry y="298" width="513" height="20" as="geometry" />
        </mxCell>
        <mxCell id="6RNQ9JOmNGrseL3mevXN-58" value="- createStatisticsPanel(): JPanel" style="text;align=left;verticalAlign=top;spacingLeft=4;spacingRight=4;overflow=hidden;rotatable=0;points=[[0,0.5],[1,0.5]];portConstraint=eastwest;" parent="6RNQ9JOmNGrseL3mevXN-52" vertex="1">
          <mxGeometry y="318" width="513" height="20" as="geometry" />
        </mxCell>
        <mxCell id="6RNQ9JOmNGrseL3mevXN-59" value="- updateTable(): void" style="text;align=left;verticalAlign=top;spacingLeft=4;spacingRight=4;overflow=hidden;rotatable=0;points=[[0,0.5],[1,0.5]];portConstraint=eastwest;" parent="6RNQ9JOmNGrseL3mevXN-52" vertex="1">
          <mxGeometry y="338" width="513" height="20" as="geometry" />
        </mxCell>
        <mxCell id="6RNQ9JOmNGrseL3mevXN-60" value="- displaySubTasks(parentTask: ComplexTask, prefix: String, model: DefaultTableModel): void" style="text;align=left;verticalAlign=top;spacingLeft=4;spacingRight=4;overflow=hidden;rotatable=0;points=[[0,0.5],[1,0.5]];portConstraint=eastwest;" parent="6RNQ9JOmNGrseL3mevXN-52" vertex="1">
          <mxGeometry y="358" width="513" height="20" as="geometry" />
        </mxCell>
        <mxCell id="6RNQ9JOmNGrseL3mevXN-61" value="- calculateWorkingHours(): void" style="text;align=left;verticalAlign=top;spacingLeft=4;spacingRight=4;overflow=hidden;rotatable=0;points=[[0,0.5],[1,0.5]];portConstraint=eastwest;" parent="6RNQ9JOmNGrseL3mevXN-52" vertex="1">
          <mxGeometry y="378" width="513" height="20" as="geometry" />
        </mxCell>
        <mxCell id="6RNQ9JOmNGrseL3mevXN-62" value="- addEmployee(): void" style="text;align=left;verticalAlign=top;spacingLeft=4;spacingRight=4;overflow=hidden;rotatable=0;points=[[0,0.5],[1,0.5]];portConstraint=eastwest;" parent="6RNQ9JOmNGrseL3mevXN-52" vertex="1">
          <mxGeometry y="398" width="513" height="20" as="geometry" />
        </mxCell>
        <mxCell id="6RNQ9JOmNGrseL3mevXN-63" value="- assignTask(): void" style="text;align=left;verticalAlign=top;spacingLeft=4;spacingRight=4;overflow=hidden;rotatable=0;points=[[0,0.5],[1,0.5]];portConstraint=eastwest;" parent="6RNQ9JOmNGrseL3mevXN-52" vertex="1">
          <mxGeometry y="418" width="513" height="20" as="geometry" />
        </mxCell>
        <mxCell id="6RNQ9JOmNGrseL3mevXN-64" value="- addSubTask(complexTaskIdField: JTextField): void" style="text;align=left;verticalAlign=top;spacingLeft=4;spacingRight=4;overflow=hidden;rotatable=0;points=[[0,0.5],[1,0.5]];portConstraint=eastwest;" parent="6RNQ9JOmNGrseL3mevXN-52" vertex="1">
          <mxGeometry y="438" width="513" height="20" as="geometry" />
        </mxCell>
        <mxCell id="6RNQ9JOmNGrseL3mevXN-65" value="- deleteSubTask(complexTaskIdField: JTextField): void" style="text;align=left;verticalAlign=top;spacingLeft=4;spacingRight=4;overflow=hidden;rotatable=0;points=[[0,0.5],[1,0.5]];portConstraint=eastwest;" parent="6RNQ9JOmNGrseL3mevXN-52" vertex="1">
          <mxGeometry y="458" width="513" height="20" as="geometry" />
        </mxCell>
        <mxCell id="6RNQ9JOmNGrseL3mevXN-66" value="- toggleTaskStatus(): void" style="text;align=left;verticalAlign=top;spacingLeft=4;spacingRight=4;overflow=hidden;rotatable=0;points=[[0,0.5],[1,0.5]];portConstraint=eastwest;" parent="6RNQ9JOmNGrseL3mevXN-52" vertex="1">
          <mxGeometry y="478" width="513" height="20" as="geometry" />
        </mxCell>
        <mxCell id="6RNQ9JOmNGrseL3mevXN-67" value="- deleteTask(): void" style="text;align=left;verticalAlign=top;spacingLeft=4;spacingRight=4;overflow=hidden;rotatable=0;points=[[0,0.5],[1,0.5]];portConstraint=eastwest;" parent="6RNQ9JOmNGrseL3mevXN-52" vertex="1">
          <mxGeometry y="498" width="513" height="20" as="geometry" />
        </mxCell>
        <mxCell id="6RNQ9JOmNGrseL3mevXN-68" value="- deleteEmployee(): void" style="text;align=left;verticalAlign=top;spacingLeft=4;spacingRight=4;overflow=hidden;rotatable=0;points=[[0,0.5],[1,0.5]];portConstraint=eastwest;" parent="6RNQ9JOmNGrseL3mevXN-52" vertex="1">
          <mxGeometry y="518" width="513" height="20" as="geometry" />
        </mxCell>
        <mxCell id="6RNQ9JOmNGrseL3mevXN-69" value="- displayEmployeesWithMoreThan40Hours(): void" style="text;align=left;verticalAlign=top;spacingLeft=4;spacingRight=4;overflow=hidden;rotatable=0;points=[[0,0.5],[1,0.5]];portConstraint=eastwest;" parent="6RNQ9JOmNGrseL3mevXN-52" vertex="1">
          <mxGeometry y="538" width="513" height="20" as="geometry" />
        </mxCell>
        <mxCell id="6RNQ9JOmNGrseL3mevXN-70" value="- displayTaskStatusStatistics(): void" style="text;align=left;verticalAlign=top;spacingLeft=4;spacingRight=4;overflow=hidden;rotatable=0;points=[[0,0.5],[1,0.5]];portConstraint=eastwest;" parent="6RNQ9JOmNGrseL3mevXN-52" vertex="1">
          <mxGeometry y="558" width="513" height="20" as="geometry" />
        </mxCell>
        <mxCell id="6RNQ9JOmNGrseL3mevXN-71" value="- updateEmployeeDropdown(): void" style="text;align=left;verticalAlign=top;spacingLeft=4;spacingRight=4;overflow=hidden;rotatable=0;points=[[0,0.5],[1,0.5]];portConstraint=eastwest;" parent="6RNQ9JOmNGrseL3mevXN-52" vertex="1">
          <mxGeometry y="578" width="513" height="20" as="geometry" />
        </mxCell>
        <mxCell id="6RNQ9JOmNGrseL3mevXN-72" value="- styleButton(button: JButton): void" style="text;align=left;verticalAlign=top;spacingLeft=4;spacingRight=4;overflow=hidden;rotatable=0;points=[[0,0.5],[1,0.5]];portConstraint=eastwest;" parent="6RNQ9JOmNGrseL3mevXN-52" vertex="1">
          <mxGeometry y="598" width="513" height="20" as="geometry" />
        </mxCell>
        <mxCell id="6RNQ9JOmNGrseL3mevXN-73" value="- styleButton2(button: JButton): void" style="text;align=left;verticalAlign=top;spacingLeft=4;spacingRight=4;overflow=hidden;rotatable=0;points=[[0,0.5],[1,0.5]];portConstraint=eastwest;" parent="6RNQ9JOmNGrseL3mevXN-52" vertex="1">
          <mxGeometry y="618" width="513" height="20" as="geometry" />
        </mxCell>
        <mxCell id="6RNQ9JOmNGrseL3mevXN-74" value="- main(args: String[]): static void" style="text;align=left;verticalAlign=top;spacingLeft=4;spacingRight=4;overflow=hidden;rotatable=0;points=[[0,0.5],[1,0.5]];portConstraint=eastwest;" parent="6RNQ9JOmNGrseL3mevXN-52" vertex="1">
          <mxGeometry y="638" width="513" height="20" as="geometry" />
        </mxCell>
        <mxCell id="6RNQ9JOmNGrseL3mevXN-76" value="1" style="endArrow=open;html=1;endSize=12;startArrow=diamondThin;startSize=14;startFill=0;edgeStyle=orthogonalEdgeStyle;align=left;verticalAlign=bottom;rounded=0;entryX=1;entryY=0.5;entryDx=0;entryDy=0;" parent="WIyWlLk6GJQsqaUBKTNV-1" target="I8PFlKCPLrSHZDO6yJQt-8" edge="1">
          <mxGeometry x="-1" y="3" relative="1" as="geometry">
            <mxPoint x="310" y="670" as="sourcePoint" />
            <mxPoint x="240" y="800" as="targetPoint" />
          </mxGeometry>
        </mxCell>
        <mxCell id="6RNQ9JOmNGrseL3mevXN-78" value="Use" style="endArrow=open;endSize=12;dashed=1;html=1;rounded=0;exitX=1;exitY=0.821;exitDx=0;exitDy=0;exitPerimeter=0;" parent="WIyWlLk6GJQsqaUBKTNV-1" source="6RNQ9JOmNGrseL3mevXN-53" edge="1">
          <mxGeometry width="160" relative="1" as="geometry">
            <mxPoint x="-930" y="860" as="sourcePoint" />
            <mxPoint x="-820" y="860" as="targetPoint" />
          </mxGeometry>
        </mxCell>
        <mxCell id="6RNQ9JOmNGrseL3mevXN-80" value="Use" style="endArrow=open;endSize=12;dashed=1;html=1;rounded=0;exitX=0.192;exitY=-0.001;exitDx=0;exitDy=0;exitPerimeter=0;" parent="WIyWlLk6GJQsqaUBKTNV-1" source="6RNQ9JOmNGrseL3mevXN-29" edge="1">
          <mxGeometry width="160" relative="1" as="geometry">
            <mxPoint x="-920" y="570" as="sourcePoint" />
            <mxPoint x="-720" y="480" as="targetPoint" />
          </mxGeometry>
        </mxCell>
        <mxCell id="6RNQ9JOmNGrseL3mevXN-81" value="1" style="endArrow=open;html=1;endSize=12;startArrow=diamondThin;startSize=14;startFill=0;edgeStyle=orthogonalEdgeStyle;align=left;verticalAlign=bottom;rounded=0;" parent="WIyWlLk6GJQsqaUBKTNV-1" source="I8PFlKCPLrSHZDO6yJQt-44" edge="1">
          <mxGeometry x="-1" y="3" relative="1" as="geometry">
            <mxPoint x="-170" y="750" as="sourcePoint" />
            <mxPoint x="-84" y="590" as="targetPoint" />
          </mxGeometry>
        </mxCell>
        <mxCell id="6RNQ9JOmNGrseL3mevXN-82" value="1" style="endArrow=open;html=1;endSize=12;startArrow=diamondThin;startSize=14;startFill=1;edgeStyle=orthogonalEdgeStyle;align=left;verticalAlign=bottom;rounded=0;exitX=0.674;exitY=-0.005;exitDx=0;exitDy=0;exitPerimeter=0;entryX=-0.007;entryY=-0.129;entryDx=0;entryDy=0;entryPerimeter=0;" parent="WIyWlLk6GJQsqaUBKTNV-1" source="6RNQ9JOmNGrseL3mevXN-29" target="I8PFlKCPLrSHZDO6yJQt-50" edge="1">
          <mxGeometry x="-0.9583" y="-4" relative="1" as="geometry">
            <mxPoint x="-493" y="585" as="sourcePoint" />
            <mxPoint x="-333" y="585" as="targetPoint" />
            <mxPoint as="offset" />
          </mxGeometry>
        </mxCell>
        <mxCell id="6RNQ9JOmNGrseL3mevXN-83" value="" style="endArrow=block;startArrow=block;endFill=1;startFill=1;html=1;rounded=0;entryX=0.25;entryY=1;entryDx=0;entryDy=0;" parent="WIyWlLk6GJQsqaUBKTNV-1" target="zkfFHV4jXpPFQw0GAbJ--17" edge="1">
          <mxGeometry width="160" relative="1" as="geometry">
            <mxPoint x="-307" y="720" as="sourcePoint" />
            <mxPoint x="-147" y="720" as="targetPoint" />
            <Array as="points">
              <mxPoint x="-155" y="720" />
            </Array>
          </mxGeometry>
        </mxCell>
        <mxCell id="6RNQ9JOmNGrseL3mevXN-84" value="Use" style="endArrow=open;endSize=12;dashed=1;html=1;rounded=0;exitX=0.127;exitY=0.001;exitDx=0;exitDy=0;exitPerimeter=0;entryX=0.128;entryY=-0.003;entryDx=0;entryDy=0;entryPerimeter=0;" parent="WIyWlLk6GJQsqaUBKTNV-1" source="6RNQ9JOmNGrseL3mevXN-52" target="zkfFHV4jXpPFQw0GAbJ--17" edge="1">
          <mxGeometry width="160" relative="1" as="geometry">
            <mxPoint x="-1420" y="588.46" as="sourcePoint" />
            <mxPoint x="-150" y="260" as="targetPoint" />
            <Array as="points">
              <mxPoint x="-1385" y="580" />
              <mxPoint x="-1380" y="240" />
              <mxPoint x="-200" y="240" />
            </Array>
          </mxGeometry>
        </mxCell>
        <mxCell id="6RNQ9JOmNGrseL3mevXN-85" value="" style="endArrow=block;startArrow=block;endFill=1;startFill=1;html=1;rounded=0;exitX=1;exitY=0;exitDx=0;exitDy=0;entryX=1;entryY=0.5;entryDx=0;entryDy=0;exitPerimeter=0;" parent="WIyWlLk6GJQsqaUBKTNV-1" source="I8PFlKCPLrSHZDO6yJQt-25" target="6RNQ9JOmNGrseL3mevXN-8" edge="1">
          <mxGeometry width="160" relative="1" as="geometry">
            <mxPoint x="190" y="139" as="sourcePoint" />
            <mxPoint x="760" y="760" as="targetPoint" />
            <Array as="points">
              <mxPoint x="770" y="150" />
              <mxPoint x="770" y="765" />
            </Array>
          </mxGeometry>
        </mxCell>
        <mxCell id="6RNQ9JOmNGrseL3mevXN-89" value="" style="endArrow=block;startArrow=block;endFill=1;startFill=1;html=1;rounded=0;exitX=1.002;exitY=0.604;exitDx=0;exitDy=0;exitPerimeter=0;" parent="WIyWlLk6GJQsqaUBKTNV-1" source="6RNQ9JOmNGrseL3mevXN-53" edge="1">
          <mxGeometry width="160" relative="1" as="geometry">
            <mxPoint x="-930" y="820" as="sourcePoint" />
            <mxPoint x="-820" y="810" as="targetPoint" />
          </mxGeometry>
        </mxCell>
      </root>
    </mxGraphModel>
  </diagram>
  <diagram id="pSTDmfraYY4cyYlImsbP" name="Package Diagram">
    <mxGraphModel dx="2087" dy="-160" grid="1" gridSize="10" guides="1" tooltips="1" connect="1" arrows="1" fold="1" page="1" pageScale="1" pageWidth="827" pageHeight="1169" math="0" shadow="0">
      <root>
        <mxCell id="0" />
        <mxCell id="1" parent="0" />
        <mxCell id="0OK7tmFch-dvWbJPQex9-1" value="&lt;font style=&quot;font-size: 18px;&quot;&gt;Data_Access&lt;/font&gt;&lt;div&gt;&lt;div&gt;&lt;span style=&quot;font-weight: normal;&quot;&gt;- SerializationOperations&lt;/span&gt;&lt;/div&gt;&lt;/div&gt;" style="shape=folder;fontStyle=1;spacingTop=10;tabWidth=40;tabHeight=14;tabPosition=left;html=1;whiteSpace=wrap;" vertex="1" parent="1">
          <mxGeometry x="157" y="1930" width="180" height="140" as="geometry" />
        </mxCell>
        <mxCell id="0OK7tmFch-dvWbJPQex9-2" value="&lt;font style=&quot;font-size: 18px;&quot;&gt;Presentation&lt;/font&gt;&lt;div&gt;&lt;font style=&quot;font-weight: normal; font-size: 12px;&quot;&gt;-Controller&lt;/font&gt;&lt;/div&gt;&lt;div&gt;&lt;font style=&quot;font-weight: normal; font-size: 12px;&quot;&gt;-View&lt;/font&gt;&lt;/div&gt;" style="shape=folder;fontStyle=1;spacingTop=10;tabWidth=40;tabHeight=14;tabPosition=left;html=1;whiteSpace=wrap;" vertex="1" parent="1">
          <mxGeometry x="157" y="1515" width="180" height="140" as="geometry" />
        </mxCell>
        <mxCell id="0OK7tmFch-dvWbJPQex9-3" value="&lt;font style=&quot;font-size: 18px;&quot;&gt;Business_Logic&lt;/font&gt;&lt;div&gt;&lt;span style=&quot;font-weight: normal;&quot;&gt;&lt;font style=&quot;font-size: 12px;&quot;&gt;-TaskManagement&lt;/font&gt;&lt;/span&gt;&lt;/div&gt;&lt;div&gt;&lt;span style=&quot;font-weight: 400;&quot;&gt;-Utility&lt;/span&gt;&lt;/div&gt;" style="shape=folder;fontStyle=1;spacingTop=10;tabWidth=40;tabHeight=14;tabPosition=left;html=1;whiteSpace=wrap;" vertex="1" parent="1">
          <mxGeometry x="157" y="1725" width="180" height="140" as="geometry" />
        </mxCell>
        <mxCell id="0OK7tmFch-dvWbJPQex9-4" value="&lt;font style=&quot;font-size: 18px;&quot;&gt;Model&lt;/font&gt;&lt;div&gt;&lt;font style=&quot;font-size: 18px;&quot;&gt;&lt;div style=&quot;font-size: 12px;&quot;&gt;&lt;font style=&quot;font-weight: normal;&quot;&gt;-Employee&lt;/font&gt;&lt;/div&gt;&lt;div style=&quot;font-size: 12px;&quot;&gt;&lt;font style=&quot;font-weight: normal;&quot;&gt;-Task&lt;/font&gt;&lt;/div&gt;&lt;div style=&quot;font-size: 12px;&quot;&gt;&lt;span style=&quot;font-weight: normal; background-color: transparent; color: light-dark(rgb(0, 0, 0), rgb(255, 255, 255));&quot;&gt;-SimpleTask&lt;/span&gt;&lt;/div&gt;&lt;div style=&quot;font-size: 12px;&quot;&gt;&lt;font style=&quot;font-weight: normal;&quot;&gt;&lt;div style=&quot;font-weight: 700;&quot;&gt;&lt;font style=&quot;font-weight: normal;&quot;&gt;-ComplexTask&lt;/font&gt;&lt;/div&gt;&lt;/font&gt;&lt;/div&gt;&lt;/font&gt;&lt;/div&gt;" style="shape=folder;fontStyle=1;spacingTop=10;tabWidth=40;tabHeight=14;tabPosition=left;html=1;whiteSpace=wrap;" vertex="1" parent="1">
          <mxGeometry x="494" y="1725" width="180" height="140" as="geometry" />
        </mxCell>
        <mxCell id="0OK7tmFch-dvWbJPQex9-5" value="" style="endArrow=open;endSize=12;dashed=1;html=1;rounded=0;" edge="1" parent="1">
          <mxGeometry width="160" relative="1" as="geometry">
            <mxPoint x="337" y="1805" as="sourcePoint" />
            <mxPoint x="497" y="1805" as="targetPoint" />
          </mxGeometry>
        </mxCell>
        <mxCell id="0OK7tmFch-dvWbJPQex9-6" value="" style="endArrow=open;endSize=12;dashed=1;html=1;rounded=0;entryX=0.454;entryY=1.024;entryDx=0;entryDy=0;entryPerimeter=0;" edge="1" parent="1" target="0OK7tmFch-dvWbJPQex9-4">
          <mxGeometry width="160" relative="1" as="geometry">
            <mxPoint x="334" y="2004.41" as="sourcePoint" />
            <mxPoint x="494" y="2004.41" as="targetPoint" />
            <Array as="points">
              <mxPoint x="576" y="2005" />
            </Array>
          </mxGeometry>
        </mxCell>
        <mxCell id="0OK7tmFch-dvWbJPQex9-7" value="" style="endArrow=open;endSize=12;dashed=1;html=1;rounded=0;entryX=0.5;entryY=0.071;entryDx=0;entryDy=0;entryPerimeter=0;" edge="1" parent="1" target="0OK7tmFch-dvWbJPQex9-4">
          <mxGeometry width="160" relative="1" as="geometry">
            <mxPoint x="337" y="1595" as="sourcePoint" />
            <mxPoint x="497" y="1595" as="targetPoint" />
            <Array as="points">
              <mxPoint x="584" y="1595" />
            </Array>
          </mxGeometry>
        </mxCell>
        <mxCell id="0OK7tmFch-dvWbJPQex9-8" value="" style="endArrow=open;endSize=12;dashed=1;html=1;rounded=0;entryX=0.496;entryY=0.075;entryDx=0;entryDy=0;entryPerimeter=0;exitX=0.5;exitY=1;exitDx=0;exitDy=0;exitPerimeter=0;" edge="1" parent="1" source="0OK7tmFch-dvWbJPQex9-2" target="0OK7tmFch-dvWbJPQex9-3">
          <mxGeometry width="160" relative="1" as="geometry">
            <mxPoint x="14" y="1685" as="sourcePoint" />
            <mxPoint x="174" y="1685" as="targetPoint" />
          </mxGeometry>
        </mxCell>
        <mxCell id="0OK7tmFch-dvWbJPQex9-9" value="" style="endArrow=open;endSize=12;dashed=1;html=1;rounded=0;entryX=0.496;entryY=0.075;entryDx=0;entryDy=0;entryPerimeter=0;exitX=0.5;exitY=1;exitDx=0;exitDy=0;exitPerimeter=0;" edge="1" parent="1">
          <mxGeometry width="160" relative="1" as="geometry">
            <mxPoint x="244.40999999999997" y="1865" as="sourcePoint" />
            <mxPoint x="243.40999999999997" y="1946" as="targetPoint" />
          </mxGeometry>
        </mxCell>
      </root>
    </mxGraphModel>
  </diagram>
  <diagram id="V00Zs8jkrsuzJYz8u7Lc" name="Case Diagram">
    <mxGraphModel dx="2218" dy="-497" grid="1" gridSize="10" guides="1" tooltips="1" connect="1" arrows="1" fold="1" page="1" pageScale="1" pageWidth="827" pageHeight="1169" math="0" shadow="0">
      <root>
        <mxCell id="0" />
        <mxCell id="1" parent="0" />
        <mxCell id="7xAC81GymhiHWsYzHwMt-1" value="&lt;b&gt;Project Manager&lt;/b&gt;" style="shape=umlActor;verticalLabelPosition=bottom;verticalAlign=top;html=1;" vertex="1" parent="1">
          <mxGeometry x="-780" y="1800" width="90" height="170" as="geometry" />
        </mxCell>
        <mxCell id="7xAC81GymhiHWsYzHwMt-2" value="&lt;b&gt;Add Employee&lt;/b&gt;" style="ellipse;whiteSpace=wrap;html=1;" vertex="1" parent="1">
          <mxGeometry x="-520" y="1400" width="140" height="70" as="geometry" />
        </mxCell>
        <mxCell id="7xAC81GymhiHWsYzHwMt-3" value="&lt;b&gt;Remove Employee&lt;/b&gt;" style="ellipse;whiteSpace=wrap;html=1;" vertex="1" parent="1">
          <mxGeometry x="-520" y="1490" width="140" height="70" as="geometry" />
        </mxCell>
        <mxCell id="7xAC81GymhiHWsYzHwMt-4" value="&lt;b&gt;Assign Task&lt;/b&gt;" style="ellipse;whiteSpace=wrap;html=1;" vertex="1" parent="1">
          <mxGeometry x="-520" y="1580" width="140" height="70" as="geometry" />
        </mxCell>
        <mxCell id="7xAC81GymhiHWsYzHwMt-5" value="&lt;b&gt;Change Task Status&lt;/b&gt;" style="ellipse;whiteSpace=wrap;html=1;" vertex="1" parent="1">
          <mxGeometry x="-520" y="1670" width="140" height="70" as="geometry" />
        </mxCell>
        <mxCell id="7xAC81GymhiHWsYzHwMt-6" value="&lt;b&gt;Remove Task&lt;/b&gt;" style="ellipse;whiteSpace=wrap;html=1;" vertex="1" parent="1">
          <mxGeometry x="-520" y="1760" width="140" height="70" as="geometry" />
        </mxCell>
        <mxCell id="7xAC81GymhiHWsYzHwMt-7" value="&lt;b&gt;Add Subtask&lt;/b&gt;" style="ellipse;whiteSpace=wrap;html=1;" vertex="1" parent="1">
          <mxGeometry x="-520" y="1850" width="140" height="70" as="geometry" />
        </mxCell>
        <mxCell id="7xAC81GymhiHWsYzHwMt-8" value="&lt;b&gt;Remove Subtask&lt;/b&gt;" style="ellipse;whiteSpace=wrap;html=1;" vertex="1" parent="1">
          <mxGeometry x="-520" y="1950" width="140" height="70" as="geometry" />
        </mxCell>
        <mxCell id="7xAC81GymhiHWsYzHwMt-9" value="&lt;b&gt;See Tasks For Employee&lt;/b&gt;" style="ellipse;whiteSpace=wrap;html=1;" vertex="1" parent="1">
          <mxGeometry x="-520" y="2040" width="140" height="70" as="geometry" />
        </mxCell>
        <mxCell id="7xAC81GymhiHWsYzHwMt-10" value="&lt;b&gt;Calculate Hours Worked&lt;/b&gt;&lt;div&gt;&lt;b&gt;By Employee&lt;/b&gt;&lt;/div&gt;" style="ellipse;whiteSpace=wrap;html=1;" vertex="1" parent="1">
          <mxGeometry x="-520" y="2140" width="140" height="70" as="geometry" />
        </mxCell>
        <mxCell id="7xAC81GymhiHWsYzHwMt-11" value="&lt;b&gt;Task Status Statistics&lt;/b&gt;" style="ellipse;whiteSpace=wrap;html=1;" vertex="1" parent="1">
          <mxGeometry x="-520" y="2240" width="140" height="70" as="geometry" />
        </mxCell>
        <mxCell id="7xAC81GymhiHWsYzHwMt-12" value="&lt;b&gt;See Employees With More Than 40 Hours&lt;/b&gt;&lt;div&gt;&lt;b&gt;Worked&lt;/b&gt;&lt;/div&gt;" style="ellipse;whiteSpace=wrap;html=1;" vertex="1" parent="1">
          <mxGeometry x="-520" y="2330" width="140" height="70" as="geometry" />
        </mxCell>
        <mxCell id="7xAC81GymhiHWsYzHwMt-13" value="" style="endArrow=none;html=1;rounded=0;entryX=0;entryY=0.5;entryDx=0;entryDy=0;exitX=1;exitY=0.3333333333333333;exitDx=0;exitDy=0;exitPerimeter=0;" edge="1" parent="1" source="7xAC81GymhiHWsYzHwMt-1" target="7xAC81GymhiHWsYzHwMt-2">
          <mxGeometry width="50" height="50" relative="1" as="geometry">
            <mxPoint x="-730" y="1800" as="sourcePoint" />
            <mxPoint x="-680" y="1750" as="targetPoint" />
          </mxGeometry>
        </mxCell>
        <mxCell id="7xAC81GymhiHWsYzHwMt-14" value="" style="endArrow=none;html=1;rounded=0;entryX=0;entryY=0.5;entryDx=0;entryDy=0;exitX=1;exitY=0.3333333333333333;exitDx=0;exitDy=0;exitPerimeter=0;" edge="1" parent="1" source="7xAC81GymhiHWsYzHwMt-1" target="7xAC81GymhiHWsYzHwMt-3">
          <mxGeometry width="50" height="50" relative="1" as="geometry">
            <mxPoint x="-690" y="1860" as="sourcePoint" />
            <mxPoint x="-670" y="1760" as="targetPoint" />
          </mxGeometry>
        </mxCell>
        <mxCell id="7xAC81GymhiHWsYzHwMt-15" value="" style="endArrow=none;html=1;rounded=0;entryX=0;entryY=0.5;entryDx=0;entryDy=0;exitX=1;exitY=0.3333333333333333;exitDx=0;exitDy=0;exitPerimeter=0;" edge="1" parent="1" source="7xAC81GymhiHWsYzHwMt-1" target="7xAC81GymhiHWsYzHwMt-4">
          <mxGeometry width="50" height="50" relative="1" as="geometry">
            <mxPoint x="-690" y="1850" as="sourcePoint" />
            <mxPoint x="-660" y="1770" as="targetPoint" />
          </mxGeometry>
        </mxCell>
        <mxCell id="7xAC81GymhiHWsYzHwMt-16" value="" style="endArrow=none;html=1;rounded=0;entryX=0;entryY=0.5;entryDx=0;entryDy=0;exitX=1;exitY=0.3333333333333333;exitDx=0;exitDy=0;exitPerimeter=0;" edge="1" parent="1" source="7xAC81GymhiHWsYzHwMt-1" target="7xAC81GymhiHWsYzHwMt-5">
          <mxGeometry width="50" height="50" relative="1" as="geometry">
            <mxPoint x="-690" y="1860" as="sourcePoint" />
            <mxPoint x="-640" y="1800" as="targetPoint" />
          </mxGeometry>
        </mxCell>
        <mxCell id="7xAC81GymhiHWsYzHwMt-17" value="" style="endArrow=none;html=1;rounded=0;entryX=0;entryY=0.5;entryDx=0;entryDy=0;exitX=1;exitY=0.3333333333333333;exitDx=0;exitDy=0;exitPerimeter=0;" edge="1" parent="1" source="7xAC81GymhiHWsYzHwMt-1" target="7xAC81GymhiHWsYzHwMt-6">
          <mxGeometry width="50" height="50" relative="1" as="geometry">
            <mxPoint x="-680" y="1850" as="sourcePoint" />
            <mxPoint x="-450" y="1760" as="targetPoint" />
          </mxGeometry>
        </mxCell>
        <mxCell id="7xAC81GymhiHWsYzHwMt-18" value="" style="endArrow=none;html=1;rounded=0;entryX=0;entryY=0.5;entryDx=0;entryDy=0;exitX=1;exitY=0.3333333333333333;exitDx=0;exitDy=0;exitPerimeter=0;" edge="1" parent="1" source="7xAC81GymhiHWsYzHwMt-1" target="7xAC81GymhiHWsYzHwMt-7">
          <mxGeometry width="50" height="50" relative="1" as="geometry">
            <mxPoint x="-690" y="1860" as="sourcePoint" />
            <mxPoint x="-450" y="1760" as="targetPoint" />
          </mxGeometry>
        </mxCell>
        <mxCell id="7xAC81GymhiHWsYzHwMt-19" value="" style="endArrow=none;html=1;rounded=0;entryX=0;entryY=0.5;entryDx=0;entryDy=0;" edge="1" parent="1" target="7xAC81GymhiHWsYzHwMt-8">
          <mxGeometry width="50" height="50" relative="1" as="geometry">
            <mxPoint x="-690" y="1860" as="sourcePoint" />
            <mxPoint x="-450" y="1760" as="targetPoint" />
          </mxGeometry>
        </mxCell>
        <mxCell id="7xAC81GymhiHWsYzHwMt-20" value="" style="endArrow=none;html=1;rounded=0;exitX=1;exitY=0.3333333333333333;exitDx=0;exitDy=0;exitPerimeter=0;entryX=0;entryY=0.5;entryDx=0;entryDy=0;" edge="1" parent="1" source="7xAC81GymhiHWsYzHwMt-1" target="7xAC81GymhiHWsYzHwMt-9">
          <mxGeometry width="50" height="50" relative="1" as="geometry">
            <mxPoint x="-500" y="2180" as="sourcePoint" />
            <mxPoint x="-450" y="2130" as="targetPoint" />
          </mxGeometry>
        </mxCell>
        <mxCell id="7xAC81GymhiHWsYzHwMt-21" value="" style="endArrow=none;html=1;rounded=0;exitX=1;exitY=0.3333333333333333;exitDx=0;exitDy=0;exitPerimeter=0;entryX=0;entryY=0.5;entryDx=0;entryDy=0;" edge="1" parent="1" source="7xAC81GymhiHWsYzHwMt-1" target="7xAC81GymhiHWsYzHwMt-10">
          <mxGeometry width="50" height="50" relative="1" as="geometry">
            <mxPoint x="-500" y="2180" as="sourcePoint" />
            <mxPoint x="-450" y="2130" as="targetPoint" />
          </mxGeometry>
        </mxCell>
        <mxCell id="7xAC81GymhiHWsYzHwMt-22" value="" style="endArrow=none;html=1;rounded=0;exitX=1;exitY=0.3333333333333333;exitDx=0;exitDy=0;exitPerimeter=0;entryX=0;entryY=0.5;entryDx=0;entryDy=0;" edge="1" parent="1" source="7xAC81GymhiHWsYzHwMt-1" target="7xAC81GymhiHWsYzHwMt-11">
          <mxGeometry width="50" height="50" relative="1" as="geometry">
            <mxPoint x="-500" y="2180" as="sourcePoint" />
            <mxPoint x="-450" y="2130" as="targetPoint" />
          </mxGeometry>
        </mxCell>
        <mxCell id="7xAC81GymhiHWsYzHwMt-23" value="" style="endArrow=none;html=1;rounded=0;exitX=1;exitY=0.3333333333333333;exitDx=0;exitDy=0;exitPerimeter=0;entryX=0;entryY=0.5;entryDx=0;entryDy=0;" edge="1" parent="1" source="7xAC81GymhiHWsYzHwMt-1" target="7xAC81GymhiHWsYzHwMt-12">
          <mxGeometry width="50" height="50" relative="1" as="geometry">
            <mxPoint x="-500" y="2180" as="sourcePoint" />
            <mxPoint x="-450" y="2130" as="targetPoint" />
          </mxGeometry>
        </mxCell>
      </root>
    </mxGraphModel>
  </diagram>
</mxfile>
